<svg xmlns="http://www.w3.org/2000/svg" viewBox="0 0 1221.84 923.21"><defs><style>.cls-1{fill:#d11948;}</style></defs><g id="Layer_2" data-name="Layer 2"><g id="Layer_1-2" data-name="Layer 1"><path class="cls-1" d="M1221.84,120.93V142c-.26.38-.72.74-.74,1.13-.41,5.83-2.44,11.23-4.48,16.6-3.37,8.83-7.83,17.14-12.39,25.4-1.61,2.94-3.15,5.92-4.56,9a129.62,129.62,0,0,1-19.91,31c-3.37,3.86-6.73,7.72-10.27,11.42a133.84,133.84,0,0,0-19.35,26.14,144.49,144.49,0,0,1-8.85,13.68c-5.31,7.23-11.13,14-19.26,18.35-1.35.47-2.7.93-4,1.43a38.18,38.18,0,0,1-15.47,2.57,24.84,24.84,0,0,1-20.13-11.22c-1-1.44-1.8-3-2.75-4.49s-2.08-3.22-3.24-4.74a11.25,11.25,0,0,0-11.38-4.54,44.08,44.08,0,0,0-6.53,1.48c-5.62,1.79-11.2,3.72-16.79,5.61-7.56,2.56-15.07,5.24-22.68,7.64a51.23,51.23,0,0,1-17.45,2.52,26.74,26.74,0,0,1-14-4.46c-4-2.62-7.29-5.73-7.82-10.84-.43-3.33-.85-6.66-1.31-10,0-.27-.32-.51-.49-.77.4-5.47,1.31-10.85,4.34-15.53,4.54-7,9.63-13.58,16.78-18.2,3-1.9,5.92-3.8,9-5.55,4.16-2.4,8.46-4.53,12.57-7,4.51-2.72,9-5.57,13.28-8.57,5.64-3.93,11.08-8.14,16.71-12.09,7.46-5.23,15.12-10.18,22.52-15.5,7.65-5.51,15.15-11.23,22.58-17.05a90.56,90.56,0,0,0,13.39-13,44,44,0,0,0,8.33-14.45c3.41-10.17,1.86-19.53-4.43-28.15a44,44,0,0,0-9.94-9.65,72,72,0,0,0-16.89-9,200.52,200.52,0,0,0-27-8.22,108.74,108.74,0,0,0-48-.49,171.29,171.29,0,0,0-34.79,12.08c-17,7.82-33.07,17.41-49.06,27.13a75.76,75.76,0,0,0-18.47,15.83c-10.2,12-19.05,24.87-27.44,38.12a9.92,9.92,0,0,0-1.44,5c-.44,6.86-1,13.72-1.5,20.57-1.32,18.18-3.35,36.29-5.77,54.35q-4,29.72-10.06,59.06A808.24,808.24,0,0,1,819.54,456c-21.34,52.45-47.68,102.21-80.31,148.56-4.78,6.79-9.75,13.46-14.68,20.16a52.38,52.38,0,0,0-8,14.66c-3,9.25-1.45,17.66,4.52,25.27,1.18,1.51,2.53,2.89,3.83,4.29a132.7,132.7,0,0,1,22.2,31.71,101.5,101.5,0,0,1,9.94,54,140.39,140.39,0,0,1-9.74,39.91c-4.8,12.2-9.08,24.58-13,37.07q-8.61,27.17-17.14,54.38a90.07,90.07,0,0,1-9.81,21.78,8.79,8.79,0,0,0-1.47,1.15c-5.81,6.92-13.36,10.72-22.08,12.51a103.75,103.75,0,0,1-20.51,1.72,5.15,5.15,0,0,1-5-3,16.69,16.69,0,0,1-1.8-8.33c0-16.63-.13-33.26,0-49.88.09-14.55.52-29.09.59-43.63,0-8.31-.34-16.62-.51-24.94A40.57,40.57,0,0,0,644.9,765.3a77.49,77.49,0,0,0-8.31-7.22,67.82,67.82,0,0,1-15.43-16.28c-.47-.73-.76-1.77-2.42-1.77-.08.13-.31.56-.58,1-3.83,5.62-8.79,10.08-14.21,14.14a87.35,87.35,0,0,0-9.79,8.43c-10.44,10.55-15.48,23.25-14.71,38.17.19,3.67.28,7.35.3,11q.09,15.82.09,31.65,0,27.35.06,54.68c0,4.79,0,9.59-.08,14.39a12.59,12.59,0,0,1-2.69,8,4,4,0,0,1-3.27,1.67c-9.47.16-18.88-.31-28-3A37.41,37.41,0,0,1,524.1,903.8a31.07,31.07,0,0,0-2-2.58c-1.21-3-2.54-5.86-3.59-8.87q-10-28.74-19.9-57.52c-7.74-22.68-15.16-45.47-21.9-68.47a82.74,82.74,0,0,1-1.57-42.65A84.71,84.71,0,0,1,489.25,693a199.91,199.91,0,0,1,17-20.76,48.67,48.67,0,0,0,7.26-9.51,29,29,0,0,0,2.08-25.39,48.38,48.38,0,0,0-6.39-11.76c-1.78-2.46-3.68-4.84-5.54-7.24a729.31,729.31,0,0,1-76.55-122.11c-30.83-62.06-52.07-127.37-66.23-195.09-3.6-17.21-6.81-34.5-8.92-52-1.38-11.42-2.68-22.86-3.6-34.33-.84-10.36-1-20.76-1.7-31.13-.31-4.78-1-9.53-1.72-14.27a15.07,15.07,0,0,0-1.53-4.5,188,188,0,0,0-15.08-25c-10.22-14.18-22.54-26.12-37.62-35.09a147.66,147.66,0,0,0-25.18-11.71c-13.09-4.74-26.59-8.07-40-11.69-12.92-3.49-25.9-3.56-39-1.27-13.28,2.33-26,6.51-38.55,11.4a81.65,81.65,0,0,0-20.84,11.7,44.1,44.1,0,0,0-11.26,12.31,24.73,24.73,0,0,0-3.63,14.18,26.53,26.53,0,0,0,2.44,9.22,78.84,78.84,0,0,0,13.14,19.95A152.6,152.6,0,0,0,144,174.62c7.93,6.72,16,13.23,23.89,20a235,235,0,0,0,23.33,17.63q9.36,6.28,18.57,12.78a101.37,101.37,0,0,1,14.32,12c1.78,1.83,3.58,3.64,5.42,5.42a28.82,28.82,0,0,1,8.54,15.24c.65,3.27.75,6.65,1.1,10-.29.9-.67,1.79-.87,2.72-1.76,8.38-7.06,13.32-15.11,15.61a33.27,33.27,0,0,1-14.72.47c-7.31-1.2-14.13-4-20.92-6.77-7.68-3.16-15.27-6.51-23-9.57a84.82,84.82,0,0,0-11.84-3.76c-6.51-1.5-10.59.38-14.25,6.06-1,1.61-1.92,3.31-3,4.92a23.54,23.54,0,0,1-14.74,10.68c-.93.22-1.86.48-2.79.72a8.11,8.11,0,0,0-5.06-.32,17,17,0,0,1-7-.24c-1.21-.29-2.47-.38-3.7-.57-4.4-1.84-8.07-4.51-10.34-8.85a11.3,11.3,0,0,0-1.78-2.25,283.76,283.76,0,0,1-29-38.77c-10.48-16.45-21-32.85-32.53-48.63-7.88-10.81-13.82-22.62-18.86-34.93-3.77-9.19-6.84-18.6-8-28.54A5.41,5.41,0,0,0,0,121.89V110.37a9.57,9.57,0,0,0,1.91-5.16,19.62,19.62,0,0,1,.56-3.3C5.19,88.66,11.2,77,19.5,66.41A125.06,125.06,0,0,1,41.74,44.73c16-12.28,33.67-21.32,52.47-28.33A267.33,267.33,0,0,1,165.08,1a36.37,36.37,0,0,0,11.53-1H192a37.16,37.16,0,0,0,11.51,1c13.65,1.66,27.3,3.27,40.94,5a131.59,131.59,0,0,1,14.65,2.42c16,3.93,31.95,7.87,47.81,12.24,23.87,6.57,47.64,13.5,71.46,20.29,13.48,2.59,25.73,8.3,37.89,14.46,37.92,19.2,76,38.13,113.95,57.24A14.78,14.78,0,0,0,538,114.3c12.61-.68,25.23-1.48,37.85-1.74,18.23-.39,36.46-.45,54.69-.46,23.68,0,47.32,1.13,71,2.34a16.84,16.84,0,0,0,8.37-1.46c3-1.43,6.17-2.67,9.13-4.25,12.27-6.52,24.54-13.06,36.73-19.74,18.5-10.15,36.89-20.49,55.39-30.62a188.49,188.49,0,0,1,23-10.67A760,760,0,0,1,919,20.54c16.72-4.27,33.58-8,50.63-10.7a350.94,350.94,0,0,1,51.61-3.9c8.63-.07,17.27.31,25.89.72A244.3,244.3,0,0,1,1086.49,12c28.14,6,54,17.51,78.46,32.47a148.8,148.8,0,0,1,29.93,23.87c10.54,11,18.65,23.51,23.53,38A41.7,41.7,0,0,1,1221,117C1220.58,118.48,1221.19,119.71,1221.84,120.93Z"/></g></g></svg>