<svg xmlns="http://www.w3.org/2000/svg" viewBox="0 0 322.48 354.47"><defs><style>.cls-1{fill:#fff;stroke:#fff;stroke-miterlimit:10;stroke-width:22px;}</style></defs><g id="Layer_2" data-name="Layer 2"><g id="Opt_3_-_2024_" data-name="Opt 3 - 2024+"><g id="Icon_on_wite" data-name="Icon on wite"><path class="cls-1" d="M311.41,93.16c-.42.66-.2,1.8-.22,2.63-.36,13.65-5.26,27.72-9.66,40.49,0,0-5.7,6.79-10.28,6.79a10.8,10.8,0,0,1-10.08-14.65,3.13,3.13,0,0,1,.08-.49c.61-2.76,2.39-6.52,3.29-9.41,6.8-22,8.91-44.43-6.42-63.34-27.43-33.84-84-27.88-106.92,8-16.57,26-9.67,46,9.17,67.64C216.72,172.58,282.82,203,277,268c-3.66,41.13-40.85,73.5-81.44,75.42-1.49.07-13.83.06-15.1,0-34.46-1.51-71.7-23.69-89.07-53.35C60.3,236.93,88.86,176.74,103.74,123.6c3.77-13.46,6.67-27,1.87-40.62-2.71-7.72-7.13-12.79-16-11.43C76.35,73.56,61.24,88,52.85,97.88A130.48,130.48,0,0,0,32,131.25l-.07,0A10.79,10.79,0,1,1,12,123.08a.36.36,0,0,1-.1-.23,147.72,147.72,0,0,1,22.33-36.8c15.86-19.41,45.6-45.72,72.61-33.43,10.63,4.84,16.43,14,19.93,24.74,5.34,16.42,3.27,32.4-1,48.74-13,49.29-46.06,114.72-9.83,161.15,18.9,24.22,54.43,38.71,85,33.56,45.13-7.63,69.95-54.59,44.41-94.64-32.76-51.38-137-92.45-96.23-168.48C164.44,29,193,12.13,225.58,11.06c2.33-.08,4.91-.08,7.23,0,40,1.37,76,30.54,78.37,71.72Z"/></g></g></g></svg>