<?xml version="1.0" encoding="UTF-8"?>
<svg id="Opt_3_-_2024_x2B_" xmlns="http://www.w3.org/2000/svg" viewBox="0 0 5721.78 8475.73">
  <defs>
    <style>
      .cls-1 {
        fill: #c60639;
        stroke: #c60639;
        stroke-miterlimit: 10;
        stroke-width: 22px;
      }
    </style>
  </defs>
  <g id="Icon_on_wite">
    <path class="cls-1" d="M1473.74,937.35c0,1.76.05,2.08,0,3.04-.77,15.61-5.34,35.58-11.75,47.19-2.07,3.74-6.62,7.04-11.38,7.04-6.84,0-12.39-5.55-12.39-12.39,0-1.56.88-4.84.91-4.99.7-3.16,2.74-7.48,3.77-10.8,7.81-25.19,10.23-50.99-7.36-72.69-31.49-38.84-96.45-32-122.72,9.19-19.01,29.82-11.09,52.79,10.53,77.63,41.72,47.92,117.58,82.85,110.94,157.43-4.2,47.21-46.89,84.36-93.47,86.57-1.71.08-15.88.06-17.34,0-39.55-1.74-82.28-27.19-102.22-61.24-35.72-60.98-2.94-130.06,14.14-191.06,4.33-15.44,7.73-30.99,2.15-46.61-2.46-6.89-11.89-13.58-18.41-13.12-15.32,1.07-32.52,18.86-42.15,30.21-9.74,11.48-18.03,24.41-23.9,38.3-.02.02-.05.03-.08.03-1.71,4.79-6.28,8.21-11.66,8.21-6.84,0-12.39-5.54-12.39-12.38,0-1.87.42-3.64,1.16-5.23-.08-.09-.12-.18-.12-.27,6.25-15.19,15.26-29.53,25.63-42.23,18.21-22.28,52.34-52.48,83.34-38.37,12.2,5.56,18.85,16.02,22.87,28.39,6.13,18.85,3.75,37.19-1.2,55.94-14.93,56.57-52.87,131.67-11.28,184.96,21.69,27.8,62.47,44.43,97.53,38.51,51.79-8.75,80.28-62.65,50.97-108.61-37.6-58.97-157.3-106.11-110.45-193.37,17.66-32.88,50.45-52.29,87.83-53.52,2.67-.09,5.63-.09,8.29,0,45.87,1.57,87.28,35.05,89.95,82.32l.26,11.91Z"/>
  </g>
</svg>