<?xml version="1.0" encoding="UTF-8"?>
<svg id="Opt_3_-_2024_x2B_" xmlns="http://www.w3.org/2000/svg" viewBox="0 0 5721.78 8475.73">
  <defs>
    <style>
      .cls-1 {
        fill: #c60639;
        stroke: #c60639;
        stroke-width: 22px;
      }

      .cls-1, .cls-2 {
        stroke-miterlimit: 10;
      }

      .cls-3 {
        letter-spacing: 0em;
      }

      .cls-4 {
        letter-spacing: -.02em;
      }

      .cls-2 {
        font-family: SpeakPro-HeavyItalic, 'Speak Pro';
        font-size: 380px;
        font-style: italic;
        font-weight: 800;
        stroke: #000;
        stroke-width: 10px;
      }
    </style>
  </defs>
  <g id="Logo_on_white">
    <g>
      <text id="_-_V1_font" class="cls-2" transform="translate(1474.44 2836.97) scale(1.02 1)"><tspan x="0" y="0">aku</tspan><tspan class="cls-4" x="545.67" y="0">r</tspan><tspan class="cls-3" x="672.59" y="0">aMed</tspan></text>
      <g id="Icon_on_wite">
        <path class="cls-1" d="M1490.7,2595.77c0,1.53.04,1.81,0,2.65-.67,13.61-4.65,31.01-10.24,41.13-1.8,3.26-5.77,6.14-9.91,6.14-5.96,0-10.8-4.84-10.8-10.8,0-1.36.77-4.22.79-4.35.61-2.75,2.39-6.52,3.29-9.41,6.81-21.95,8.92-44.44-6.41-63.35-27.44-33.85-84.06-27.89-106.95,8.01-16.57,25.99-9.66,46.01,9.18,67.65,36.36,41.76,102.47,72.2,96.68,137.2-3.66,41.14-40.86,73.52-81.46,75.45-1.49.07-13.84.05-15.11,0-34.47-1.52-71.71-23.7-89.09-53.37-31.13-53.14-2.56-113.35,12.32-166.51,3.77-13.46,6.73-27.01,1.87-40.62-2.14-6.01-10.36-11.83-16.04-11.43-13.35.94-28.34,16.44-36.73,26.33-8.49,10-15.71,21.27-20.83,33.38-.02.02-.04.03-.07.03-1.49,4.17-5.47,7.16-10.16,7.16-5.96,0-10.8-4.83-10.8-10.79,0-1.63.37-3.17,1.01-4.56-.07-.08-.1-.16-.1-.24,5.45-13.24,13.3-25.74,22.34-36.8,15.87-19.42,45.61-45.74,72.63-33.44,10.63,4.85,16.43,13.96,19.93,24.74,5.34,16.43,3.27,32.41-1.05,48.75-13.01,49.3-46.08,114.75-9.83,161.19,18.9,24.23,54.44,38.72,85,33.56,45.14-7.63,69.96-54.6,44.42-94.65-32.77-51.39-137.09-92.48-96.26-168.52,15.39-28.66,43.97-45.57,76.54-46.64,2.33-.08,4.91-.08,7.22,0,39.98,1.37,76.06,30.55,78.39,71.74l.23,10.38Z"/>
      </g>
    </g>
  </g>
</svg>